PathFileType	4	(X/Y/Z)	Kaydara	
DataRate	CameraRate	NumFrames	NumMarkers	Units	OrigDataRate	OrigDataStartFrame	OrigNumFrames	
60.00	60.00	5	74	mm	60.00	429	164	
Frame#	Time	N_lasi			N_rasi			N_rpsi			N_lpsi			N_fneck			N_bneck			N_fhead			N_rhead			N_lhead			N_rshld			N_relbtop			N_relbext			N_relblow			N_rwrext			N_rwrtop			N_rwrlow			N_lshld			N_lelbext			N_lelblow			N_lelbtop			N_lwrext			N_lwrtop			N_lwrlow			N_rtopleg			N_ltopleg			N_rkneefr			N_rkneebk			N_rkneeis			N_lkneefr			N_lknssbk			N_lkneeis			N_rankfr			N_rankis			N_rankbk			N_lankfr			N_lankbk			N_lankis			D_lasi			D_rasi			D_rpsi			D_lpsi			D_fneck			D_bneck			D_fhead			D_rhead			D_lhead			D_rshld			D_relbtop			D_relbext			D_relblow			D_rwrext			D_rwrtop			D_rwrlow			D_lshld			D_lelbext			D_lelblow			D_lelbtop			D_lwrext			D_lwrtop			D_lwrlow			D_rtopleg			D_ltopleg			D_rkneefr			D_rkneebk			D_rkneeis			D_lkneefr			D_lknssbk			D_lkneeis			D_rankfr			D_rankis			D_rankbk			D_lankfr			D_lankbk			D_lankis			
		X1	Y1	Z1	X2	Y2	Z2	X3	Y3	Z3	X4	Y4	Z4	X5	Y5	Z5	X6	Y6	Z6	X7	Y7	Z7	X8	Y8	Z8	X9	Y9	Z9	X10	Y10	Z10	X11	Y11	Z11	X12	Y12	Z12	X13	Y13	Z13	X14	Y14	Z14	X15	Y15	Z15	X16	Y16	Z16	X17	Y17	Z17	X18	Y18	Z18	X19	Y19	Z19	X20	Y20	Z20	X21	Y21	Z21	X22	Y22	Z22	X23	Y23	Z23	X24	Y24	Z24	X25	Y25	Z25	X26	Y26	Z26	X27	Y27	Z27	X28	Y28	Z28	X29	Y29	Z29	X30	Y30	Z30	X31	Y31	Z31	X32	Y32	Z32	X33	Y33	Z33	X34	Y34	Z34	X35	Y35	Z35	X36	Y36	Z36	X37	Y37	Z37	X38	Y38	Z38	X39	Y39	Z39	X40	Y40	Z40	X41	Y41	Z41	X42	Y42	Z42	X43	Y43	Z43	X44	Y44	Z44	X45	Y45	Z45	X46	Y46	Z46	X47	Y47	Z47	X48	Y48	Z48	X49	Y49	Z49	X50	Y50	Z50	X51	Y51	Z51	X52	Y52	Z52	X53	Y53	Z53	X54	Y54	Z54	X55	Y55	Z55	X56	Y56	Z56	X57	Y57	Z57	X58	Y58	Z58	X59	Y59	Z59	X60	Y60	Z60	X61	Y61	Z61	X62	Y62	Z62	X63	Y63	Z63	X64	Y64	Z64	X65	Y65	Z65	X66	Y66	Z66	X67	Y67	Z67	X68	Y68	Z68	X69	Y69	Z69	X70	Y70	Z70	X71	Y71	Z71	X72	Y72	Z72	X73	Y73	Z73	X74	Y74	Z74	

42	7.133	287.39056	1086.51535	939.72824	456.79955	1123.44414	1123.42369	282.34432	1181.02257	1348.35037	44.12212	1161.76826	1085.87532	189.55399	1536.39130	1024.83376	237.63687	1635.23331	1123.67104	320.62344	1688.36304	891.06865	314.08772	1739.13498	1089.39545	189.24849	1714.80164	997.40341	442.51434	1495.68985	1263.49678	497.72423	1196.96060	1387.19589	449.64478	1162.87224	1313.23532	542.93488	1213.24471	1310.54291	649.82758	936.02386	1283.13736	650.87212	961.25320	1240.16937	612.66861	946.49063	1215.20775	24.19343	1477.24670	992.03636	32.62038	1133.12881	1037.80891	9.02133	1139.39384	938.25287	-49.14587	1146.50284	1003.81027	-18.06691	842.78023	975.89294	19.96663	831.97105	948.04001	53.74861	843.01117	987.27562	453.51944	977.88544	1295.63049	60.37092	995.01450	1021.61964	501.68232	493.91243	1223.97751	398.24123	552.61669	1311.26129	376.79100	506.09715	1172.45575	334.57165	522.23671	994.20082	209.51004	521.20903	1040.04410	312.81429	515.59307	1138.80302	237.40545	247.04498	1454.54102	198.84266	241.82949	1384.68384	150.87030	289.06067	1437.58270	334.48891	160.13109	1037.51770	260.83868	151.06768	1075.34630	340.27191	163.93423	1113.60481	-985.90355	1023.29842	280.59662	-1266.90208	1038.09731	214.70995	-1167.44507	1134.71977	28.31042	-957.09518	1118.59642	84.99007	-1105.95146	1519.49158	275.47825	-1090.96977	1595.65933	158.03689	-1084.01802	1690.21347	391.45134	-1174.75441	1728.45551	235.92325	-1019.89235	1715.59418	227.35125	-1302.56149	1475.66269	155.52971	-1343.04245	1166.78802	19.82691	-1295.68085	1141.98746	75.39872	-1396.87546	1173.51578	88.35999	-1432.42249	927.62543	20.70887	-1448.28995	922.16690	76.69855	-1394.01672	919.43405	87.62607	-872.19673	1475.86472	192.75002	-887.38045	1144.94705	220.69136	-799.03976	1185.46875	243.65938	-815.74074	1135.30968	181.34411	-815.08034	962.62459	371.35151	-827.22214	990.72136	403.81821	-877.55295	997.99026	395.77808	-1307.30835	988.31032	121.90847	-905.17273	993.43445	156.35637	-1276.24527	497.86247	346.56094	-1312.54227	486.69647	243.81189	-1187.79198	462.29832	255.58823	-1044.70978	448.89652	122.98015	-972.10571	490.69057	36.69869	-1103.80272	468.07606	37.89148	-1321.76758	159.37342	397.15649	-1260.62126	146.06386	369.65031	-1327.99896	132.01973	320.91412	-1040.64560	141.80542	-52.63980	-984.55383	151.75236	-102.82724	-1071.56174	163.97163	-108.44790 
43	7.150	293.59362	1087.36702	929.19014	466.72279	1125.94223	1111.54289	293.43359	1185.31837	1335.90439	51.66355	1164.79767	1077.38289	200.10721	1539.99588	1013.15971	248.19010	1638.83774	1111.99699	328.40405	1694.24805	879.54468	323.40267	1742.72934	1078.11050	197.71242	1719.04480	987.16026	454.38637	1498.91113	1249.14406	509.30386	1200.56900	1373.31543	462.05383	1166.11588	1299.74731	555.00172	1216.79497	1297.57858	662.22183	939.07883	1273.25577	664.28482	964.41658	1230.50705	626.82182	949.72572	1204.38095	32.77540	1481.68610	982.62207	43.85128	1136.66649	1025.23346	18.63994	1143.99529	927.58522	-39.23226	1150.19791	993.35152	-6.60415	846.97998	964.36226	28.61507	836.58913	933.05458	65.86299	847.75391	968.67470	466.00342	982.09061	1282.02744	66.29922	996.69052	1014.33670	525.18749	504.03328	1193.96400	422.28157	558.58326	1284.07089	398.95542	513.74428	1144.92844	336.62899	521.40064	991.23032	212.02345	522.35943	1038.36235	317.33318	516.13247	1134.60022	270.32026	247.53532	1425.28549	230.43886	242.97602	1356.38382	182.78807	288.28505	1411.03287	334.40662	160.20218	1037.69669	261.08576	151.85633	1076.27502	340.46185	164.59463	1113.86505	-988.03253	1022.05193	293.80611	-1270.97893	1036.19545	233.38701	-1174.73518	1132.45743	44.68807	-963.25668	1117.27074	97.48773	-1110.54901	1517.80304	290.51771	-1097.46033	1593.91663	172.62833	-1086.87675	1688.79028	406.01337	-1180.13252	1726.76727	251.88534	-1025.46036	1714.06326	240.62677	-1308.85956	1473.36716	173.92673	-1351.99692	1162.81311	42.04796	-1303.66318	1138.71330	97.36497	-1404.13254	1170.44571	111.70597	-1441.31958	923.61160	48.42881	-1455.82825	919.08928	105.08989	-1401.92184	916.78032	115.71801	-878.00941	1474.71649	204.15565	-892.32994	1142.98889	228.82257	-803.46512	1183.85757	250.93519	-821.61728	1134.85008	188.02280	-813.80241	956.95534	372.72491	-825.74677	983.90175	406.33812	-876.30219	990.53154	399.51214	-1312.21878	986.19972	141.43346	-909.56932	992.62917	168.14802	-1274.29939	493.27934	361.62796	-1313.02185	483.91811	259.71243	-1188.36647	459.62986	267.33755	-1045.08888	447.42027	139.66055	-974.96689	490.76717	47.45361	-1105.58075	466.76388	51.64515	-1317.36206	153.63250	405.00729	-1257.80647	140.74743	374.10385	-1327.13226	128.40361	328.34507	-1040.26306	142.95343	-48.57407	-985.30884	155.01962	-99.32752	-1072.44713	166.22612	-103.30395 
44	7.167	300.38061	1089.83521	918.61809	476.89144	1128.45474	1099.02611	304.45175	1189.91493	1322.84561	58.48951	1168.29483	1069.32800	210.32074	1543.42316	1001.69655	258.40363	1642.26517	1100.53383	335.81093	1699.56345	868.00209	332.78549	1746.19904	1066.89224	206.23110	1723.04276	976.93207	466.06552	1502.49100	1234.90738	521.82381	1204.94408	1360.97504	474.63428	1170.21523	1287.34833	567.04277	1220.91454	1284.59824	674.12857	942.57889	1263.38089	676.74156	967.62344	1220.80238	639.73549	952.76550	1194.10240	40.98031	1486.26251	973.19763	54.64812	1140.56358	1013.23273	27.58245	1149.00597	917.29530	-29.51066	1154.20265	983.66432	5.12703	851.58722	951.99280	37.37590	841.69121	917.69562	77.37263	852.78381	949.92821	478.59257	986.07338	1268.16040	72.32558	998.42903	1006.73630	546.69231	514.41051	1164.12880	444.40228	563.06999	1257.51724	419.17419	521.42803	1117.83737	338.49621	520.74432	989.00406	214.46568	523.70872	1037.14554	320.63980	517.40723	1131.96800	304.30414	244.55750	1394.20197	262.84952	240.94845	1326.14792	215.79899	283.48242	1383.31253	334.44080	160.30989	1037.66457	261.35540	152.56457	1076.78711	341.33739	165.09472	1113.36792	-990.31090	1021.37177	307.49943	-1274.56444	1034.92874	252.49859	-1182.01294	1130.09666	61.41808	-969.18343	1116.32156	110.49891	-1115.63072	1516.96442	305.98995	-1103.98361	1592.96906	187.54074	-1089.42978	1687.98676	420.75554	-1185.35904	1725.78979	268.34713	-1030.72426	1713.49396	254.14677	-1315.22247	1471.52420	192.64027	-1360.87448	1159.13589	64.97546	-1311.02020	1135.85182	119.33701	-1411.28754	1167.72583	135.72787	-1449.62006	919.77394	77.21749	-1462.78946	916.35223	134.37965	-1409.58527	914.04800	144.93027	-883.80386	1474.10461	215.82664	-897.53448	1141.44669	237.65629	-807.80289	1182.73514	258.14224	-827.85454	1135.05821	194.77350	-812.48428	951.57715	373.25668	-824.09126	977.20215	407.94888	-875.11673	983.17627	402.54166	-1317.33063	984.54208	161.66748	-913.94997	992.14340	180.52296	-1271.32408	489.50321	375.32692	-1313.67249	482.00756	274.55774	-1189.22974	456.77944	277.31207	-1044.82422	442.02484	143.95243	-978.17451	491.02821	60.04540	-1108.00926	465.19329	67.22340	-1313.87482	149.86676	416.17317	-1255.69847	137.26999	381.18622	-1328.08075	126.52071	339.57130	-1039.60228	144.62967	-43.15411	-986.24435	159.26153	-94.80375	-1073.44177	169.12418	-96.47743 
45	7.183	307.49506	1093.77037	907.87132	486.81152	1131.47194	1085.86067	315.23548	1193.78502	1309.68567	65.94802	1171.26678	1061.02112	220.21822	1546.37512	990.01022	268.30111	1645.21698	1088.84750	343.21056	1704.53278	856.45584	342.18361	1748.86032	1055.38750	214.79845	1726.59592	967.15172	477.48562	1506.07361	1221.04240	534.29958	1209.67140	1348.45322	487.63260	1174.81239	1275.31807	579.09851	1225.19592	1272.09328	685.30510	946.26770	1253.88718	688.49213	970.63446	1210.64728	651.44005	955.71159	1183.88306	49.14127	1490.61401	963.64952	64.96196	1144.28299	1001.13197	35.77312	1153.96080	906.91246	-20.07345	1157.94525	974.12064	16.34432	855.90691	938.39050	46.78788	846.90277	902.23030	88.33963	857.71103	932.56477	490.98289	990.01984	1253.85361	78.37188	1000.45242	998.57651	566.20636	524.58065	1134.78500	464.62025	566.43688	1231.59904	437.58789	529.47197	1091.40457	340.44796	519.92233	986.88789	217.05530	524.84180	1036.04874	323.66230	518.75847	1130.47432	339.35329	238.53926	1360.43625	296.17826	235.82840	1294.02496	249.41742	274.44012	1354.27994	334.56345	160.28074	1037.23816	261.78585	153.00159	1076.98959	342.38846	165.41256	1112.55592	-992.76924	1021.33293	321.63467	-1277.95341	1034.46640	272.07785	-1189.25064	1129.91577	79.70035	-974.81392	1115.94948	124.35620	-1118.82927	1516.67999	320.16041	-1110.51064	1593.13095	202.59346	-1091.87798	1687.70676	435.79948	-1190.43533	1725.78796	285.14002	-1036.01219	1713.76572	268.20095	-1321.46988	1470.47272	211.59819	-1369.14841	1155.76096	89.09498	-1317.93198	1133.36922	140.28996	-1418.30597	1165.47081	160.57081	-1457.09808	916.40892	107.02449	-1469.20029	914.17587	164.51923	-1415.04440	911.76521	173.30704	-889.46922	1474.19891	227.35638	-902.85240	1140.32700	245.52668	-812.74071	1182.21016	265.54672	-834.60388	1136.00922	201.60814	-810.93567	946.72577	372.54509	-822.49916	970.84213	408.66993	-873.54317	976.04034	404.51168	-1322.28043	984.03496	182.22853	-918.06465	992.16591	193.33609	-1268.45940	488.07476	389.27368	-1315.51987	481.65150	290.00046	-1192.66037	455.46642	285.24803	-1043.85246	438.42117	160.84921	-981.51115	491.36848	75.29068	-1110.15106	463.33977	86.00622	-1312.18094	146.26418	426.01917	-1255.57877	134.07618	388.33080	-1329.51859	125.13527	349.22787	-1038.96255	147.18972	-35.82860	-987.16789	164.66722	-88.66781	-1074.35677	172.54055	-87.50545 
46	7.200	314.70428	1098.40744	897.00340	496.10584	1135.00267	1072.15263	326.49593	1198.12523	1296.53473	74.29849	1173.81462	1052.55966	230.12068	1549.04968	978.63281	278.20356	1647.89154	1077.47009	350.45647	1708.76770	844.82140	351.79909	1751.19141	1045.04807	223.45181	1729.72839	957.24678	488.80638	1509.41025	1207.32613	546.94336	1214.30756	1336.71631	500.74554	1179.24927	1263.78189	591.21555	1229.24767	1259.79195	696.54625	949.63036	1243.66241	699.75838	973.20206	1199.71809	662.33299	958.21602	1173.76076	57.02935	1494.42520	954.34525	74.06428	1147.88010	991.25313	42.83786	1158.44353	896.49933	-11.07010	1161.17996	964.82536	27.62011	860.01114	924.12338	56.91601	852.17628	886.77849	99.39828	862.46498	916.17432	503.55865	993.63991	1238.94524	84.69543	1002.23083	990.41756	583.28781	534.22226	1105.85495	483.71147	568.63468	1206.90239	453.50155	536.98017	1067.03957	342.41714	519.11079	984.82994	219.57232	525.82493	1034.89090	327.52834	519.15558	1127.97150	375.40760	230.07080	1326.05194	330.34863	228.17415	1260.57793	284.04850	261.82556	1323.61633	334.69044	160.18557	1036.83052	262.24884	153.39084	1077.33925	343.17215	165.52547	1112.48657	-994.81140	1022.03362	335.67707	-1280.07706	1034.16733	291.14639	-1196.41548	1130.45502	97.74382	-980.21187	1116.50375	138.68987	-1122.70622	1517.50809	335.33592	-1116.89438	1593.98804	217.84393	-1093.81828	1688.06641	450.89947	-1195.24925	1726.42014	302.24028	-1041.12244	1714.70230	282.35388	-1327.56058	1470.17990	230.81553	-1377.06589	1153.17520	113.93818	-1324.05792	1131.66939	163.01004	-1424.81628	1163.93188	186.20329	-1463.92853	913.77518	137.66614	-1474.92081	912.70859	195.54300	-1419.70184	910.33096	202.47746	-895.28450	1475.05157	238.50622	-908.16650	1140.17853	255.54588	-817.95174	1182.44576	272.80552	-841.71211	1137.78526	208.38842	-809.75121	942.72446	370.86952	-820.60944	965.18311	407.98443	-872.22694	969.52682	405.83729	-1326.77475	984.65858	202.73806	-921.98143	992.73018	206.35561	-1267.74185	488.17814	404.75643	-1319.26514	482.82146	306.80979	-1196.87508	455.59898	296.50932	-1042.11334	436.34190	181.90958	-984.52484	491.87534	93.83136	-1111.71906	460.79430	108.70448	-1312.84775	143.50773	433.36079	-1257.07260	131.90250	394.25808	-1331.56250	124.42136	356.37897	-1037.87430	150.15101	-26.44023	-988.82111	171.21840	-80.07991	-1075.71236	176.86001	-75.68448 
